<mxfile host="app.diagrams.net" modified="2021-03-03T09:39:23.555Z" agent="5.0 (Macintosh; Intel Mac OS X 10_13_2) AppleWebKit/537.36 (KHTML, like Gecko) Chrome/88.0.4324.182 Safari/537.36" etag="Mi_-hDcAAE4QFjNFU5mt" version="14.4.3" type="github">
  <diagram id="e7z7fAhQTNAkRXs3EQxo" name="Page-1">
    <mxGraphModel dx="1444" dy="706" grid="1" gridSize="10" guides="1" tooltips="1" connect="1" arrows="1" fold="1" page="1" pageScale="1" pageWidth="827" pageHeight="1169" math="0" shadow="0">
      <root>
        <mxCell id="0" />
        <mxCell id="1" parent="0" />
        <mxCell id="GVMw0MtqoF8rpIZD3hR1-55" style="edgeStyle=orthogonalEdgeStyle;rounded=0;orthogonalLoop=1;jettySize=auto;html=1;entryX=1;entryY=0.75;entryDx=0;entryDy=0;exitX=0.126;exitY=0.976;exitDx=0;exitDy=0;exitPerimeter=0;" edge="1" parent="1" source="GVMw0MtqoF8rpIZD3hR1-4" target="GVMw0MtqoF8rpIZD3hR1-54">
          <mxGeometry relative="1" as="geometry">
            <mxPoint x="310" y="432" as="sourcePoint" />
            <Array as="points">
              <mxPoint x="260" y="579" />
            </Array>
          </mxGeometry>
        </mxCell>
        <mxCell id="GVMw0MtqoF8rpIZD3hR1-1" value="AppLambdaDelegate" style="swimlane;fontStyle=1;align=center;verticalAlign=top;childLayout=stackLayout;horizontal=1;startSize=26;horizontalStack=0;resizeParent=1;resizeParentMax=0;resizeLast=0;collapsible=1;marginBottom=0;" vertex="1" parent="1">
          <mxGeometry x="240" y="320" width="160" height="112" as="geometry" />
        </mxCell>
        <mxCell id="GVMw0MtqoF8rpIZD3hR1-2" value="+ redis: any&#xa;" style="text;strokeColor=none;fillColor=none;align=left;verticalAlign=top;spacingLeft=4;spacingRight=4;overflow=hidden;rotatable=0;points=[[0,0.5],[1,0.5]];portConstraint=eastwest;" vertex="1" parent="GVMw0MtqoF8rpIZD3hR1-1">
          <mxGeometry y="26" width="160" height="26" as="geometry" />
        </mxCell>
        <mxCell id="GVMw0MtqoF8rpIZD3hR1-5" value="+ postgrea: any" style="text;strokeColor=none;fillColor=none;align=left;verticalAlign=top;spacingLeft=4;spacingRight=4;overflow=hidden;rotatable=0;points=[[0,0.5],[1,0.5]];portConstraint=eastwest;" vertex="1" parent="GVMw0MtqoF8rpIZD3hR1-1">
          <mxGeometry y="52" width="160" height="26" as="geometry" />
        </mxCell>
        <mxCell id="GVMw0MtqoF8rpIZD3hR1-3" value="" style="line;strokeWidth=1;fillColor=none;align=left;verticalAlign=middle;spacingTop=-1;spacingLeft=3;spacingRight=3;rotatable=0;labelPosition=right;points=[];portConstraint=eastwest;" vertex="1" parent="GVMw0MtqoF8rpIZD3hR1-1">
          <mxGeometry y="78" width="160" height="8" as="geometry" />
        </mxCell>
        <mxCell id="GVMw0MtqoF8rpIZD3hR1-4" value="+ exec()" style="text;strokeColor=none;fillColor=none;align=left;verticalAlign=top;spacingLeft=4;spacingRight=4;overflow=hidden;rotatable=0;points=[[0,0.5],[1,0.5]];portConstraint=eastwest;" vertex="1" parent="GVMw0MtqoF8rpIZD3hR1-1">
          <mxGeometry y="86" width="160" height="26" as="geometry" />
        </mxCell>
        <mxCell id="GVMw0MtqoF8rpIZD3hR1-10" style="edgeStyle=orthogonalEdgeStyle;rounded=0;orthogonalLoop=1;jettySize=auto;html=1;entryX=1;entryY=0.5;entryDx=0;entryDy=0;" edge="1" parent="1" source="GVMw0MtqoF8rpIZD3hR1-2" target="GVMw0MtqoF8rpIZD3hR1-16">
          <mxGeometry relative="1" as="geometry">
            <mxPoint x="190" y="346" as="targetPoint" />
          </mxGeometry>
        </mxCell>
        <mxCell id="GVMw0MtqoF8rpIZD3hR1-29" value="ServerResponse" style="swimlane;fontStyle=0;childLayout=stackLayout;horizontal=1;startSize=26;fillColor=none;horizontalStack=0;resizeParent=1;resizeParentMax=0;resizeLast=0;collapsible=1;marginBottom=0;" vertex="1" parent="1">
          <mxGeometry x="10" y="320" width="140" height="78" as="geometry" />
        </mxCell>
        <mxCell id="GVMw0MtqoF8rpIZD3hR1-16" value="+ statusCode: number" style="text;strokeColor=none;fillColor=none;align=left;verticalAlign=top;spacingLeft=4;spacingRight=4;overflow=hidden;rotatable=0;points=[[0,0.5],[1,0.5]];portConstraint=eastwest;" vertex="1" parent="GVMw0MtqoF8rpIZD3hR1-29">
          <mxGeometry y="26" width="140" height="26" as="geometry" />
        </mxCell>
        <mxCell id="GVMw0MtqoF8rpIZD3hR1-20" value="+ statusMessage: string" style="text;strokeColor=none;fillColor=none;align=left;verticalAlign=top;spacingLeft=4;spacingRight=4;overflow=hidden;rotatable=0;points=[[0,0.5],[1,0.5]];portConstraint=eastwest;" vertex="1" parent="GVMw0MtqoF8rpIZD3hR1-29">
          <mxGeometry y="52" width="140" height="26" as="geometry" />
        </mxCell>
        <mxCell id="GVMw0MtqoF8rpIZD3hR1-33" value="AWSRequest" style="swimlane;fontStyle=0;childLayout=stackLayout;horizontal=1;startSize=26;fillColor=none;horizontalStack=0;resizeParent=1;resizeParentMax=0;resizeLast=0;collapsible=1;marginBottom=0;" vertex="1" parent="1">
          <mxGeometry x="10" y="432" width="140" height="52" as="geometry" />
        </mxCell>
        <mxCell id="GVMw0MtqoF8rpIZD3hR1-37" style="edgeStyle=orthogonalEdgeStyle;rounded=0;orthogonalLoop=1;jettySize=auto;html=1;entryX=1;entryY=0.5;entryDx=0;entryDy=0;" edge="1" parent="1" source="GVMw0MtqoF8rpIZD3hR1-5" target="GVMw0MtqoF8rpIZD3hR1-33">
          <mxGeometry relative="1" as="geometry" />
        </mxCell>
        <mxCell id="GVMw0MtqoF8rpIZD3hR1-38" value="AWSReq" style="swimlane;fontStyle=0;childLayout=stackLayout;horizontal=1;startSize=26;fillColor=none;horizontalStack=0;resizeParent=1;resizeParentMax=0;resizeLast=0;collapsible=1;marginBottom=0;" vertex="1" parent="1">
          <mxGeometry x="-270" y="410" width="190" height="240" as="geometry" />
        </mxCell>
        <mxCell id="GVMw0MtqoF8rpIZD3hR1-39" value="+ protocol: string" style="text;strokeColor=none;fillColor=none;align=left;verticalAlign=top;spacingLeft=4;spacingRight=4;overflow=hidden;rotatable=0;points=[[0,0.5],[1,0.5]];portConstraint=eastwest;" vertex="1" parent="GVMw0MtqoF8rpIZD3hR1-38">
          <mxGeometry y="26" width="190" height="26" as="geometry" />
        </mxCell>
        <mxCell id="GVMw0MtqoF8rpIZD3hR1-40" value="+ host: string&#xa;" style="text;strokeColor=none;fillColor=none;align=left;verticalAlign=top;spacingLeft=4;spacingRight=4;overflow=hidden;rotatable=0;points=[[0,0.5],[1,0.5]];portConstraint=eastwest;" vertex="1" parent="GVMw0MtqoF8rpIZD3hR1-38">
          <mxGeometry y="52" width="190" height="26" as="geometry" />
        </mxCell>
        <mxCell id="GVMw0MtqoF8rpIZD3hR1-41" value="+ params: object" style="text;strokeColor=none;fillColor=none;align=left;verticalAlign=top;spacingLeft=4;spacingRight=4;overflow=hidden;rotatable=0;points=[[0,0.5],[1,0.5]];portConstraint=eastwest;" vertex="1" parent="GVMw0MtqoF8rpIZD3hR1-38">
          <mxGeometry y="78" width="190" height="26" as="geometry" />
        </mxCell>
        <mxCell id="GVMw0MtqoF8rpIZD3hR1-42" value="+ query: object" style="text;strokeColor=none;fillColor=none;align=left;verticalAlign=top;spacingLeft=4;spacingRight=4;overflow=hidden;rotatable=0;points=[[0,0.5],[1,0.5]];portConstraint=eastwest;" vertex="1" parent="GVMw0MtqoF8rpIZD3hR1-38">
          <mxGeometry y="104" width="190" height="26" as="geometry" />
        </mxCell>
        <mxCell id="GVMw0MtqoF8rpIZD3hR1-44" value="+ pagination: object" style="text;strokeColor=none;fillColor=none;align=left;verticalAlign=top;spacingLeft=4;spacingRight=4;overflow=hidden;rotatable=0;points=[[0,0.5],[1,0.5]];portConstraint=eastwest;" vertex="1" parent="GVMw0MtqoF8rpIZD3hR1-38">
          <mxGeometry y="130" width="190" height="26" as="geometry" />
        </mxCell>
        <mxCell id="GVMw0MtqoF8rpIZD3hR1-45" value="+ body: object" style="text;strokeColor=none;fillColor=none;align=left;verticalAlign=top;spacingLeft=4;spacingRight=4;overflow=hidden;rotatable=0;points=[[0,0.5],[1,0.5]];portConstraint=eastwest;" vertex="1" parent="GVMw0MtqoF8rpIZD3hR1-38">
          <mxGeometry y="156" width="190" height="26" as="geometry" />
        </mxCell>
        <mxCell id="GVMw0MtqoF8rpIZD3hR1-46" value="+ queryStr: object" style="text;strokeColor=none;fillColor=none;align=left;verticalAlign=top;spacingLeft=4;spacingRight=4;overflow=hidden;rotatable=0;points=[[0,0.5],[1,0.5]];portConstraint=eastwest;" vertex="1" parent="GVMw0MtqoF8rpIZD3hR1-38">
          <mxGeometry y="182" width="190" height="26" as="geometry" />
        </mxCell>
        <mxCell id="GVMw0MtqoF8rpIZD3hR1-43" value="- processQueryStringParameters" style="text;strokeColor=none;fillColor=none;align=left;verticalAlign=top;spacingLeft=4;spacingRight=4;overflow=hidden;rotatable=0;points=[[0,0.5],[1,0.5]];portConstraint=eastwest;" vertex="1" parent="GVMw0MtqoF8rpIZD3hR1-38">
          <mxGeometry y="208" width="190" height="32" as="geometry" />
        </mxCell>
        <mxCell id="GVMw0MtqoF8rpIZD3hR1-48" value="Extends" style="endArrow=block;endSize=16;endFill=0;html=1;exitX=0;exitY=0.75;exitDx=0;exitDy=0;entryX=1;entryY=0.5;entryDx=0;entryDy=0;" edge="1" parent="1" source="GVMw0MtqoF8rpIZD3hR1-33" target="GVMw0MtqoF8rpIZD3hR1-40">
          <mxGeometry width="160" relative="1" as="geometry">
            <mxPoint x="-80" y="350" as="sourcePoint" />
            <mxPoint x="80" y="350" as="targetPoint" />
          </mxGeometry>
        </mxCell>
        <mxCell id="GVMw0MtqoF8rpIZD3hR1-49" value="IncomingMessage" style="swimlane;fontStyle=0;childLayout=stackLayout;horizontal=1;startSize=20;fillColor=none;horizontalStack=0;resizeParent=1;resizeParentMax=0;resizeLast=0;collapsible=1;marginBottom=0;" vertex="1" parent="1">
          <mxGeometry x="-245" y="750" width="140" height="46" as="geometry" />
        </mxCell>
        <mxCell id="GVMw0MtqoF8rpIZD3hR1-53" value="Extends" style="endArrow=block;endSize=16;endFill=0;html=1;entryX=0.5;entryY=0;entryDx=0;entryDy=0;exitX=0.494;exitY=0.955;exitDx=0;exitDy=0;exitPerimeter=0;" edge="1" parent="1" source="GVMw0MtqoF8rpIZD3hR1-43" target="GVMw0MtqoF8rpIZD3hR1-49">
          <mxGeometry width="160" relative="1" as="geometry">
            <mxPoint x="-180" y="660" as="sourcePoint" />
            <mxPoint x="-60" y="670" as="targetPoint" />
          </mxGeometry>
        </mxCell>
        <mxCell id="GVMw0MtqoF8rpIZD3hR1-54" value="ConfigRegistered" style="swimlane;fontStyle=0;childLayout=stackLayout;horizontal=1;startSize=26;fillColor=none;horizontalStack=0;resizeParent=1;resizeParentMax=0;resizeLast=0;collapsible=1;marginBottom=0;" vertex="1" parent="1">
          <mxGeometry x="10" y="540" width="140" height="52" as="geometry" />
        </mxCell>
        <mxCell id="GVMw0MtqoF8rpIZD3hR1-56" value="ConfRegistered" style="swimlane;fontStyle=0;childLayout=stackLayout;horizontal=1;startSize=26;fillColor=none;horizontalStack=0;resizeParent=1;resizeParentMax=0;resizeLast=0;collapsible=1;marginBottom=0;" vertex="1" parent="1">
          <mxGeometry x="10" y="670" width="140" height="164" as="geometry" />
        </mxCell>
        <mxCell id="GVMw0MtqoF8rpIZD3hR1-57" value="- instance" style="text;strokeColor=none;fillColor=none;align=left;verticalAlign=top;spacingLeft=4;spacingRight=4;overflow=hidden;rotatable=0;points=[[0,0.5],[1,0.5]];portConstraint=eastwest;" vertex="1" parent="GVMw0MtqoF8rpIZD3hR1-56">
          <mxGeometry y="26" width="140" height="26" as="geometry" />
        </mxCell>
        <mxCell id="GVMw0MtqoF8rpIZD3hR1-58" value="- confMap" style="text;strokeColor=none;fillColor=none;align=left;verticalAlign=top;spacingLeft=4;spacingRight=4;overflow=hidden;rotatable=0;points=[[0,0.5],[1,0.5]];portConstraint=eastwest;" vertex="1" parent="GVMw0MtqoF8rpIZD3hR1-56">
          <mxGeometry y="52" width="140" height="26" as="geometry" />
        </mxCell>
        <mxCell id="GVMw0MtqoF8rpIZD3hR1-61" value="" style="line;strokeWidth=1;fillColor=none;align=left;verticalAlign=middle;spacingTop=-1;spacingLeft=3;spacingRight=3;rotatable=0;labelPosition=right;points=[];portConstraint=eastwest;" vertex="1" parent="GVMw0MtqoF8rpIZD3hR1-56">
          <mxGeometry y="78" width="140" height="8" as="geometry" />
        </mxCell>
        <mxCell id="GVMw0MtqoF8rpIZD3hR1-62" value="+ registered()" style="text;strokeColor=none;fillColor=none;align=left;verticalAlign=top;spacingLeft=4;spacingRight=4;overflow=hidden;rotatable=0;points=[[0,0.5],[1,0.5]];portConstraint=eastwest;" vertex="1" parent="GVMw0MtqoF8rpIZD3hR1-56">
          <mxGeometry y="86" width="140" height="26" as="geometry" />
        </mxCell>
        <mxCell id="GVMw0MtqoF8rpIZD3hR1-63" value="+ getConf()&#xa;&#xa;" style="text;strokeColor=none;fillColor=none;align=left;verticalAlign=top;spacingLeft=4;spacingRight=4;overflow=hidden;rotatable=0;points=[[0,0.5],[1,0.5]];portConstraint=eastwest;" vertex="1" parent="GVMw0MtqoF8rpIZD3hR1-56">
          <mxGeometry y="112" width="140" height="26" as="geometry" />
        </mxCell>
        <mxCell id="GVMw0MtqoF8rpIZD3hR1-64" value="+ getInstance()&#xa;&#xa;" style="text;strokeColor=none;fillColor=none;align=left;verticalAlign=top;spacingLeft=4;spacingRight=4;overflow=hidden;rotatable=0;points=[[0,0.5],[1,0.5]];portConstraint=eastwest;" vertex="1" parent="GVMw0MtqoF8rpIZD3hR1-56">
          <mxGeometry y="138" width="140" height="26" as="geometry" />
        </mxCell>
        <mxCell id="GVMw0MtqoF8rpIZD3hR1-60" value="Extends" style="endArrow=block;endSize=16;endFill=0;html=1;exitX=0.5;exitY=1;exitDx=0;exitDy=0;entryX=0.5;entryY=0;entryDx=0;entryDy=0;" edge="1" parent="1" source="GVMw0MtqoF8rpIZD3hR1-54" target="GVMw0MtqoF8rpIZD3hR1-56">
          <mxGeometry x="-0.2821" width="160" relative="1" as="geometry">
            <mxPoint x="130" y="540" as="sourcePoint" />
            <mxPoint x="290" y="540" as="targetPoint" />
            <mxPoint as="offset" />
          </mxGeometry>
        </mxCell>
        <mxCell id="GVMw0MtqoF8rpIZD3hR1-65" value="DBConf" style="swimlane;fontStyle=1;align=center;verticalAlign=top;childLayout=stackLayout;horizontal=1;startSize=26;horizontalStack=0;resizeParent=1;resizeParentMax=0;resizeLast=0;collapsible=1;marginBottom=0;" vertex="1" parent="1">
          <mxGeometry y="890" width="160" height="82" as="geometry" />
        </mxCell>
        <mxCell id="GVMw0MtqoF8rpIZD3hR1-66" value="+ field: type" style="text;strokeColor=none;fillColor=none;align=left;verticalAlign=top;spacingLeft=4;spacingRight=4;overflow=hidden;rotatable=0;points=[[0,0.5],[1,0.5]];portConstraint=eastwest;" vertex="1" parent="GVMw0MtqoF8rpIZD3hR1-65">
          <mxGeometry y="26" width="160" height="22" as="geometry" />
        </mxCell>
        <mxCell id="GVMw0MtqoF8rpIZD3hR1-67" value="" style="line;strokeWidth=1;fillColor=none;align=left;verticalAlign=middle;spacingTop=-1;spacingLeft=3;spacingRight=3;rotatable=0;labelPosition=right;points=[];portConstraint=eastwest;" vertex="1" parent="GVMw0MtqoF8rpIZD3hR1-65">
          <mxGeometry y="48" width="160" height="8" as="geometry" />
        </mxCell>
        <mxCell id="GVMw0MtqoF8rpIZD3hR1-68" value="+ method(type): type" style="text;strokeColor=none;fillColor=none;align=left;verticalAlign=top;spacingLeft=4;spacingRight=4;overflow=hidden;rotatable=0;points=[[0,0.5],[1,0.5]];portConstraint=eastwest;" vertex="1" parent="GVMw0MtqoF8rpIZD3hR1-65">
          <mxGeometry y="56" width="160" height="26" as="geometry" />
        </mxCell>
      </root>
    </mxGraphModel>
  </diagram>
</mxfile>
